<svg width="20" height="20" viewBox="0 0 20 20" fill="none" xmlns="http://www.w3.org/2000/svg">
<path fill-rule="evenodd" clip-rule="evenodd" d="M19.5798 10.4594C19.5797 10.4611 19.5797 10.4629 19.5796 10.4646C19.4166 13.7143 17.6045 16.801 14.5279 18.4507C14.523 18.4533 14.5182 18.456 14.5133 18.4586C12.7203 19.4161 10.7593 19.7466 8.88208 19.5262C8.71474 19.5066 8.54807 19.4826 8.38224 19.4542C5.56457 18.9726 2.99057 17.2425 1.53511 14.5281C-0.969563 9.85699 0.786653 4.03986 5.45773 1.53518C6.4122 1.02338 7.41453 0.689486 8.42667 0.522019C8.59318 0.494469 8.75996 0.471423 8.92683 0.452829C10.6573 0.26002 12.3981 0.546083 13.9604 1.254C13.9653 1.25625 13.9703 1.2585 13.9753 1.26076C15.8218 2.10128 17.4178 3.53175 18.4506 5.45782C19.3047 7.05069 19.6633 8.77682 19.5798 10.4594ZM8.42429 1.53769L8.38463 18.4385C5.92352 17.9683 3.69125 16.4331 2.4164 14.0555C0.172719 9.87115 1.74594 4.66017 5.93028 2.41648C6.7344 1.9853 7.57494 1.6955 8.42429 1.53769ZM9.38432 18.5696L9.42458 1.41246C10.8453 1.31933 12.2634 1.58294 13.5476 2.16485C15.2074 2.91695 16.6411 4.1994 17.5693 5.93038C18.3359 7.36014 18.6564 8.90682 18.5808 10.4145C18.4347 13.3287 16.8103 16.0922 14.0554 17.5694C12.567 18.3675 10.9511 18.6824 9.38432 18.5696Z" fill="url(#paint0_linear_5044_9)"/>
<defs>
<linearGradient id="paint0_linear_5044_9" x1="0.755987" y1="8.72326" x2="20.9646" y2="9.99196" gradientUnits="userSpaceOnUse">
<stop offset="0.288448" stop-color="#555248"/>
<stop offset="0.780176" stop-color="#1B1A17" stop-opacity="0"/>
</linearGradient>
</defs>
</svg>
